<?xml version="1.0" standalone="no"?>
<!DOCTYPE svg PUBLIC "-//W3C//DTD SVG 20010904//EN"
 "http://www.w3.org/TR/2001/REC-SVG-20010904/DTD/svg10.dtd">
<svg version="1.0" xmlns="http://www.w3.org/2000/svg"
 width="217.000000pt" height="217.000000pt" viewBox="0 0 217.000000 217.000000"
 preserveAspectRatio="xMidYMid meet">
<metadata>
Created by potrace 1.14, written by Peter Selinger 2001-2017
</metadata>
<g transform="translate(0.000000,217.000000) scale(0.100000,-0.100000)"
fill="#000000" stroke="none">
<path d="M10 1090 l0 -1080 1080 0 1080 0 0 1080 0 1080 -1080 0 -1080 0 0
-1080z m1276 1058 c4 -6 9 -5 15 3 7 11 9 11 9 -1 0 -17 36 -24 45 -9 3 5 0 6
-8 3 -8 -3 -18 -1 -21 4 -8 13 67 11 76 -2 5 -7 8 -7 8 2 0 9 82 12 375 12
l375 0 0 -820 c-1 -453 -5 -818 -9 -815 -5 3 -11 -1 -14 -9 -3 -8 1 -17 9 -20
19 -7 18 -33 -1 -33 -14 0 -21 26 -15 52 1 6 3 15 4 20 1 6 4 15 7 20 3 6 6
22 7 38 1 22 -2 27 -22 27 -28 0 -37 20 -41 89 -1 25 -6 57 -9 71 -4 14 -9 40
-11 59 -3 18 -8 38 -12 45 -3 6 -1 6 8 -1 7 -7 18 -13 23 -13 6 0 4 5 -4 10
-13 9 -13 11 0 20 11 8 7 9 -15 4 -27 -7 -29 -6 -17 9 11 13 10 17 -5 27 -17
11 -17 11 0 6 15 -5 18 -1 15 21 -2 14 -10 28 -18 30 -13 4 -13 3 0 -7 13 -10
13 -11 0 -7 -8 2 -15 12 -15 23 -1 10 -4 24 -8 30 -3 6 -6 28 -5 48 1 27 4 33
14 25 9 -8 11 -5 7 10 -3 12 -9 21 -14 21 -5 0 -8 3 -8 8 1 4 0 9 -1 12 -2 3
-4 21 -5 40 -2 19 -4 35 -5 35 -8 0 -4 75 5 75 5 0 1 7 -9 15 -20 15 -20 15 0
15 17 1 17 2 3 13 -17 13 -34 101 -17 91 6 -4 6 1 -1 13 -6 11 -7 23 -3 27 3
4 0 11 -8 16 -8 6 -10 10 -4 10 27 0 22 32 -11 67 -25 27 -31 39 -22 45 9 6 8
11 -5 18 -9 6 -15 16 -12 24 3 7 -2 19 -11 26 -8 7 -15 19 -15 27 0 8 -7 21
-15 29 -10 10 -13 25 -9 42 4 21 3 24 -5 12 -8 -11 -11 -12 -11 -2 0 7 -5 10
-11 7 -5 -4 -19 1 -30 11 -21 18 -26 40 -7 28 7 -4 8 -3 4 5 -4 6 -12 8 -18 5
-7 -5 -9 -2 -5 8 4 11 -1 18 -14 21 -10 3 -19 0 -19 -5 0 -6 -9 -3 -21 8 -12
10 -24 19 -28 19 -3 0 -5 3 -3 8 1 4 -7 7 -17 7 -11 0 -23 5 -26 10 -4 6 -22
17 -41 25 -20 8 -33 18 -30 23 2 4 -7 9 -20 10 -16 1 -23 -2 -18 -9 3 -6 -8
-4 -24 5 -17 9 -40 16 -52 16 -11 0 -20 5 -20 10 0 7 -6 7 -20 0 -15 -8 -20
-8 -21 2 0 10 -2 10 -6 0 -7 -18 -23 -4 -17 16 5 14 4 14 -4 2 -6 -8 -8 -18
-6 -22 3 -4 1 -8 -5 -8 -5 0 -13 5 -17 12 -8 13 25 40 42 34 14 -5 24 14 20
40 -2 12 -15 21 -37 26 -38 8 -92 1 -84 -12 3 -4 -4 -10 -14 -13 -15 -3 -18 0
-14 17 4 19 3 19 -9 4 -13 -15 -16 -14 -37 12 -22 29 -51 31 -51 4 0 -14 -11
-18 -42 -15 -12 2 -15 -4 -11 -19 4 -14 1 -20 -8 -18 -15 3 -15 -5 -3 -36 5
-13 4 -17 -4 -12 -6 3 -14 0 -19 -8 -6 -10 -33 -17 -87 -21 -82 -6 -100 -11
-91 -25 3 -5 1 -11 -5 -15 -5 -3 -10 0 -10 7 0 9 -3 9 -10 -2 -8 -13 -10 -12
-10 3 0 10 -5 15 -10 12 -6 -4 -8 -10 -5 -14 7 -13 -45 -61 -66 -61 -11 0 -19
-6 -20 -12 0 -10 -2 -10 -6 0 -6 15 -33 16 -33 1 0 -5 4 -7 10 -4 6 3 7 -1 4
-9 -7 -19 -24 -21 -24 -3 0 8 -6 14 -13 14 -9 0 -12 -9 -9 -24 3 -16 0 -23
-12 -23 -8 0 -13 -6 -11 -12 7 -20 -11 -42 -26 -32 -24 15 -38 13 -31 -4 5
-15 4 -16 -14 -2 -18 14 -18 14 -5 -3 8 -9 11 -20 9 -23 -3 -3 -16 7 -28 23
-20 25 -22 26 -31 10 -6 -10 -14 -15 -20 -12 -5 4 -9 -4 -8 -17 0 -13 3 -17 6
-10 2 6 9 10 14 6 5 -3 9 2 9 10 0 9 4 16 9 16 12 0 28 -23 25 -37 -1 -7 -2
-19 -3 -25 -1 -9 -4 -9 -9 -3 -9 13 -27 13 -39 1 -5 -5 -3 -6 5 -2 6 4 12 3
12 -2 0 -18 -50 -22 -86 -7 -32 13 -35 13 -24 0 7 -8 22 -15 33 -15 11 0 17
-3 13 -7 -12 -13 -51 -14 -73 -2 -26 14 -55 5 -47 -15 3 -8 0 -17 -7 -22 -7
-4 -10 -3 -5 4 3 6 2 13 -4 17 -5 3 -10 2 -10 -3 0 -5 -7 -9 -15 -9 -14 0 -19
10 -16 30 1 5 -3 5 -9 2 -6 -4 -9 -13 -6 -21 4 -12 2 -12 -15 -3 -19 10 -20 9
-9 -11 9 -18 9 -21 0 -15 -7 4 -15 3 -19 -4 -7 -10 -57 -16 -91 -10 -25 4
-106 -3 -87 -8 9 -2 17 -8 17 -13 0 -5 10 -7 22 -5 27 6 15 -5 -43 -39 l-47
-27 2 29 c1 16 8 37 15 46 12 15 12 17 0 14 -12 -3 -14 40 -17 265 l-2 268
630 -1 c426 -1 632 -5 636 -12z m-76 -22 c0 -2 -7 -6 -15 -10 -8 -3 -15 -1
-15 4 0 6 7 10 15 10 8 0 15 -2 15 -4z m-20 -102 c0 -19 -17 -17 -30 4 -10 15
-11 15 -6 0 3 -11 -1 -16 -12 -16 -9 0 -25 -3 -34 -7 -11 -4 -18 -3 -18 4 0 6
3 10 8 9 4 0 15 2 25 7 17 7 17 8 0 21 -15 11 -11 11 25 2 24 -6 42 -16 42
-24z m-550 -265 c-7 -11 -14 -18 -17 -15 -8 8 5 36 17 36 7 0 7 -6 0 -21z
m1330 -225 c0 -8 -4 -12 -10 -9 -5 3 -10 10 -10 16 0 5 5 9 10 9 6 0 10 -7 10
-16z m-475 -174 c-3 -5 -14 -10 -23 -9 -14 0 -13 2 3 9 27 11 27 11 20 0z
m-1445 -95 c7 -8 9 -15 5 -15 -5 0 1 -8 12 -18 11 -9 22 -26 24 -37 3 -14 12
-20 29 -20 18 0 26 -6 28 -23 2 -12 7 -20 11 -17 5 2 16 -4 26 -15 10 -11 14
-20 9 -20 -5 0 2 -6 16 -13 14 -8 24 -20 22 -27 -2 -11 0 -11 11 -1 12 9 16 8
21 -5 3 -9 4 -20 1 -25 -4 -5 1 -6 9 -3 9 4 18 0 22 -9 3 -9 13 -13 26 -9 16
4 19 2 13 -9 -7 -11 -5 -11 10 1 10 8 16 10 12 3 -4 -6 -1 -13 5 -16 10 -3 9
-8 -2 -22 -12 -15 -12 -17 -1 -10 11 6 13 4 9 -7 -11 -26 6 -42 31 -29 12 7
18 17 15 23 -5 7 -2 8 6 3 9 -6 11 -4 5 5 -6 10 -11 9 -21 -5 -12 -16 -13 -16
-11 4 2 25 24 36 40 18 15 -16 21 -41 8 -33 -17 11 -23 -14 -26 -105 -2 -59 1
-91 9 -98 6 -6 12 -31 11 -56 0 -39 2 -43 12 -28 17 22 16 13 -2 -31 -8 -20
-13 -36 -11 -36 2 0 12 -3 22 -7 13 -5 15 -3 9 8 -8 12 -6 12 9 0 9 -8 13 -17
9 -20 -18 -13 -11 -31 13 -37 19 -5 22 -9 12 -15 -10 -7 -9 -9 4 -9 9 0 18 -5
20 -11 2 -5 10 -11 18 -12 22 -4 40 -17 40 -30 0 -8 -3 -8 -12 1 -7 7 -16 12
-22 12 -5 0 -1 -8 10 -19 10 -10 22 -17 27 -14 4 2 7 -4 8 -14 0 -14 2 -14 9
5 12 29 25 28 52 -3 12 -14 27 -25 33 -25 20 0 46 -36 39 -54 -3 -9 -1 -16 6
-16 6 0 8 5 4 13 -4 6 2 3 15 -7 15 -14 18 -22 10 -27 -7 -4 -18 -5 -25 -2 -6
2 -15 0 -18 -6 -8 -13 23 -43 36 -35 6 4 8 2 4 -4 -3 -6 -1 -14 5 -18 9 -5 8
-10 -2 -18 -17 -14 -41 -76 -28 -76 5 0 9 6 10 13 0 9 2 9 5 0 3 -7 0 -21 -6
-32 -9 -18 -8 -21 7 -21 14 0 15 -2 4 -9 -9 -6 -10 -11 -2 -15 6 -4 9 -12 6
-17 -9 -14 25 -23 38 -10 6 6 7 11 1 11 -5 0 -9 11 -9 24 0 13 3 22 8 19 4 -2
7 -11 7 -20 0 -13 2 -14 17 -2 9 8 14 9 10 2 -18 -29 3 -40 71 -39 60 1 69 4
91 29 14 17 28 24 35 19 6 -4 21 -7 34 -6 12 0 22 -2 22 -6 0 -5 22 -5 93 -1
4 1 7 8 5 17 -2 10 4 19 12 21 13 4 13 3 0 -6 -12 -9 -11 -11 8 -11 12 0 22
-4 22 -9 0 -5 9 -11 20 -14 16 -4 19 0 18 19 -2 23 -9 28 -36 25 -6 -1 -12 6
-12 15 0 10 5 14 15 10 10 -3 15 1 15 12 0 15 2 15 10 2 8 -13 10 -12 10 3 0
9 -4 17 -10 17 -5 0 -10 6 -10 14 0 8 -14 17 -30 21 -17 4 -28 11 -24 16 3 5
8 8 12 5 4 -2 18 8 32 22 25 24 25 24 3 19 -25 -6 -32 7 -9 16 22 9 37 -13 25
-37 -9 -19 -9 -19 8 2 18 22 18 22 31 2 7 -11 20 -20 30 -20 10 0 35 -9 55
-19 30 -15 34 -20 20 -24 -14 -4 -13 -5 4 -6 l23 -1 -21 -36 c-15 -28 -17 -39
-8 -50 8 -9 8 -14 1 -14 -6 0 -1 -11 12 -23 16 -16 34 -23 53 -22 18 1 30 -3
30 -11 0 -9 -7 -10 -24 -3 -12 5 -23 5 -23 0 0 -12 -373 -9 -382 4 -5 7 -8 6
-8 -2 0 -14 -97 -16 -105 -2 -4 5 -15 9 -26 9 -11 0 -17 -4 -14 -10 7 -11 -63
-9 -82 3 -6 4 -14 3 -17 -2 -4 -5 -174 -10 -401 -10 l-395 -2 0 579 0 580 23
7 c12 4 26 6 31 6 5 -1 3 6 -4 16 -8 10 -16 20 -18 23 -2 3 -2 -4 0 -15 2 -12
-3 -21 -14 -23 -15 -3 -18 4 -18 42 0 48 9 57 30 31z m64 -70 c3 -8 1 -15 -4
-15 -6 0 -10 7 -10 15 0 8 2 15 4 15 2 0 6 -7 10 -15z m1851 -837 c18 -8 22
-14 13 -20 -12 -7 53 -14 77 -8 6 2 24 3 40 4 17 1 35 5 42 9 6 4 14 4 16 0 2
-5 5 -79 6 -166 l2 -158 -244 2 c-195 2 -244 5 -244 16 0 7 6 13 13 13 6 0 15
7 18 16 5 13 9 14 22 3 8 -7 14 -8 13 -3 -1 5 -1 20 0 33 1 17 5 22 17 17 13
-5 15 -1 12 19 -3 14 -1 25 3 25 5 0 9 7 9 15 0 8 -5 15 -11 15 -6 0 -22 9
-36 20 -14 11 -22 20 -17 20 5 0 2 5 -6 10 -9 6 -10 10 -3 10 6 0 15 -5 18
-10 5 -8 11 -8 20 0 10 8 15 8 20 0 5 -8 11 -8 20 0 8 7 18 9 24 6 5 -4 16 1
24 9 20 20 28 19 20 -2 -4 -13 1 -11 20 7 14 14 33 31 41 37 8 7 13 22 11 34
-3 17 0 20 15 16 27 -7 25 2 -2 13 -13 5 -18 9 -11 9 7 1 24 -4 38 -11z
m-1148 -101 c0 -7 -8 -14 -18 -14 -15 -1 -16 1 -6 12 15 18 24 19 24 2z m716
-221 c4 -10 1 -13 -9 -9 -15 6 -19 23 -5 23 5 0 11 -7 14 -14z m124 -2 c-4 -4
-23 -8 -44 -10 -28 -2 -33 0 -18 6 24 10 71 13 62 4z"/>
<path d="M1365 2130 c-3 -5 -2 -10 4 -10 5 0 13 5 16 10 3 6 2 10 -4 10 -5 0
-13 -4 -16 -10z"/>
<path d="M819 1976 c10 -11 8 -15 -6 -19 -16 -4 -16 -5 2 -6 17 -1 18 -3 5
-12 -13 -9 -13 -10 0 -6 8 2 15 9 15 15 0 5 3 14 8 18 13 14 7 24 -14 24 -17
0 -19 -3 -10 -14z"/>
<path d="M739 1929 c-8 -17 -8 -20 2 -17 7 2 13 12 15 21 3 23 -3 21 -17 -4z"/>
<path d="M1737 1908 c-5 -20 -4 -21 6 -7 7 9 19 18 27 22 10 4 9 6 -6 6 -14 1
-24 -7 -27 -21z"/>
<path d="M450 1770 c-9 -6 -10 -10 -3 -10 6 0 15 5 18 10 8 12 4 12 -15 0z"/>
<path d="M1900 1717 c0 -9 9 -22 20 -30 11 -8 17 -16 15 -19 -3 -3 4 -8 15
-11 17 -4 19 -3 10 8 -8 10 -7 14 2 18 10 4 8 10 -6 21 -24 19 -40 21 -31 4 4
-7 -1 -4 -9 6 -14 17 -16 17 -16 3z"/>
<path d="M55 1597 c-4 -10 -5 -21 -1 -24 10 -10 18 4 13 24 -4 17 -4 17 -12 0z"/>
<path d="M1994 1395 c0 -13 3 -22 7 -19 8 4 6 30 -2 38 -3 3 -5 -5 -5 -19z"/>
<path d="M2020 1346 c0 -2 7 -7 16 -10 8 -3 12 -2 9 4 -6 10 -25 14 -25 6z"/>
<path d="M2030 1301 c0 -6 4 -13 10 -16 6 -3 7 1 4 9 -7 18 -14 21 -14 7z"/>
<path d="M2010 1291 c0 -6 4 -13 10 -16 6 -3 7 1 4 9 -7 18 -14 21 -14 7z"/>
<path d="M2033 1083 c-19 -7 -16 -27 11 -58 14 -16 26 -23 30 -17 3 6 1 14 -5
18 -8 5 -8 9 1 14 7 4 9 16 5 29 -6 21 -18 24 -42 14z"/>
<path d="M2127 647 c-3 -8 0 -14 7 -14 7 0 13 6 13 14 0 7 -4 13 -8 13 -4 0
-9 -6 -12 -13z"/>
<path d="M60 1165 c0 -10 -5 -14 -12 -10 -7 4 -4 -1 6 -9 11 -9 25 -16 30 -16
6 0 5 4 -3 9 -7 5 -11 13 -7 19 3 6 2 13 -4 17 -5 3 -10 -1 -10 -10z"/>
<path d="M220 970 c-9 -6 -10 -10 -3 -10 6 0 15 5 18 10 8 12 4 12 -15 0z"/>
<path d="M286 948 c3 -5 10 -6 15 -3 13 9 11 12 -6 12 -8 0 -12 -4 -9 -9z"/>
<path d="M380 722 c0 -4 10 -9 22 -9 18 -2 20 0 8 7 -18 12 -30 13 -30 2z"/>
<path d="M420 566 c0 -2 7 -9 15 -16 13 -11 14 -10 9 4 -5 14 -24 23 -24 12z"/>
<path d="M635 400 c-3 -5 -1 -10 4 -10 6 0 11 5 11 10 0 6 -2 10 -4 10 -3 0
-8 -4 -11 -10z"/>
<path d="M545 380 c-3 -5 1 -10 9 -10 9 0 16 5 16 10 0 6 -4 10 -9 10 -6 0
-13 -4 -16 -10z"/>
<path d="M1328 223 c-10 -3 -18 -9 -18 -14 0 -15 30 -23 43 -10 14 14 -2 29
-25 24z m22 -13 c0 -5 -8 -10 -17 -10 -15 0 -16 2 -3 10 19 12 20 12 20 0z"/>
<path d="M1356 112 c-3 -5 1 -9 9 -9 8 0 12 4 9 9 -3 4 -7 8 -9 8 -2 0 -6 -4
-9 -8z"/>
<path d="M728 66 c-3 -14 -1 -26 4 -26 14 0 22 30 11 41 -7 7 -12 2 -15 -15z"/>
<path d="M1913 281 c-24 -20 -30 -41 -12 -41 5 0 8 3 6 8 -3 4 1 13 8 19 11
10 15 9 18 -5 3 -10 5 -6 6 11 1 32 2 32 -26 8z"/>
<path d="M2040 287 c0 -2 6 -10 14 -16 11 -9 16 -9 22 1 4 7 4 10 -1 6 -4 -4
-14 -3 -22 3 -7 6 -13 9 -13 6z"/>
<path d="M1986 268 c3 -5 10 -6 15 -3 13 9 11 12 -6 12 -8 0 -12 -4 -9 -9z"/>
<path d="M2088 243 c6 -2 9 -10 6 -15 -4 -7 -2 -8 5 -4 13 9 5 26 -12 25 -9 0
-8 -2 1 -6z"/>
<path d="M1872 235 c4 -4 0 -14 -8 -22 -8 -9 -12 -18 -8 -22 4 -3 9 -1 11 6 2
7 10 11 16 9 7 -1 9 -1 4 1 -4 3 -5 9 -2 13 3 5 0 12 -7 16 -7 4 -10 4 -6 -1z"/>
<path d="M2055 230 c3 -5 8 -10 11 -10 2 0 4 5 4 10 0 6 -5 10 -11 10 -5 0 -7
-4 -4 -10z"/>
<path d="M1790 213 c0 -19 17 -24 30 -8 9 10 9 15 1 15 -6 0 -11 -6 -11 -12 0
-9 -4 -8 -10 2 -6 9 -10 10 -10 3z"/>
<path d="M1797 164 c4 -11 3 -15 -4 -11 -7 5 -9 0 -6 -13 3 -11 9 -20 14 -20
12 0 11 47 -1 55 -6 4 -7 -1 -3 -11z"/>
<path d="M1770 70 c0 -5 5 -10 11 -10 5 0 7 5 4 10 -3 6 -8 10 -11 10 -2 0 -4
-4 -4 -10z"/>
<path d="M1753 45 c0 -8 4 -12 9 -9 5 3 6 10 3 15 -9 13 -12 11 -12 -6z"/>
</g>
</svg>
